<svg width="31" height="26" viewBox="0 0 31 26" fill="none" xmlns="http://www.w3.org/2000/svg">
<path d="M27.8382 6.73347C27.8562 7.00397 27.8562 7.28048 27.8562 7.55097C27.8562 15.8883 21.5086 25.5 9.90721 25.5C6.33063 25.5 3.01252 24.4661 0.223389 22.6688C0.728318 22.7289 1.22122 22.7469 1.74419 22.7469C4.69562 22.7469 7.40661 21.7491 9.5766 20.054C6.8055 19.9939 4.47922 18.1785 3.67975 15.6779C4.07047 15.738 4.46119 15.7741 4.86994 15.7741C5.43498 15.7741 6.00002 15.696 6.52899 15.5577C3.63767 14.9746 1.47369 12.432 1.47369 9.36631V9.28817C2.31524 9.75703 3.28903 10.0516 4.32293 10.0876C2.6218 8.95756 1.50976 7.022 1.50976 4.83397C1.50976 3.66182 1.82233 2.58584 2.36934 1.64811C5.47706 5.47716 10.1416 7.97776 15.3773 8.24826C15.2811 7.77939 15.221 7.2925 15.221 6.8056C15.221 3.33121 18.0342 0.5 21.5266 0.5C23.3419 0.5 24.9829 1.2634 26.1371 2.48966C27.5617 2.21916 28.9322 1.69019 30.1404 0.968863C29.6716 2.43556 28.6737 3.66182 27.3693 4.44326C28.6377 4.305 29.8699 3.95636 31 3.46946C30.1404 4.71976 29.0645 5.83181 27.8382 6.73347Z" fill="white"/>
</svg>
