<svg width="75" height="100" viewBox="0 0 75 100" fill="none" xmlns="http://www.w3.org/2000/svg">
<g clip-path="url(#clip0_245_2247)">
<path d="M33.9454 1.07422C36.0938 -0.351563 38.9063 -0.351563 41.0548 1.07422L44.5313 3.35938C45.7032 4.12109 47.0704 4.49219 48.4571 4.41406L52.6173 4.16016C55.1954 4.00391 57.6173 5.41016 58.7696 7.71484L60.6446 11.4453C61.2696 12.6953 62.2853 13.6914 63.5157 14.3164L67.2853 16.2109C69.5899 17.3633 70.9962 19.7852 70.8399 22.3633L70.586 26.5234C70.5079 27.9102 70.879 29.2969 71.6407 30.4492L73.9454 33.9258C75.3712 36.0742 75.3712 38.8867 73.9454 41.0352L71.6407 44.5313C70.879 45.7031 70.5079 47.0703 70.586 48.457L70.8399 52.6172C70.9962 55.1953 69.5899 57.6172 67.2853 58.7695L63.5548 60.6445C62.3048 61.2695 61.3087 62.2852 60.6837 63.5156L58.7892 67.2852C57.6368 69.5899 55.2149 70.9961 52.6368 70.8399L48.4767 70.5859C47.0899 70.5078 45.7032 70.8789 44.5509 71.6406L41.0743 73.9453C38.9259 75.3711 36.1134 75.3711 33.9649 73.9453L30.4688 71.6406C29.297 70.8789 27.9298 70.5078 26.5431 70.5859L22.3829 70.8399C19.8048 70.9961 17.3829 69.5899 16.2306 67.2852L14.3556 63.5547C13.7306 62.3047 12.7149 61.3086 11.4845 60.6836L7.71494 58.7891C5.41025 57.6367 4.004 55.2149 4.16025 52.6367L4.41416 48.4766C4.49228 47.0898 4.12119 45.7031 3.35947 44.5508L1.07431 41.0547C-0.35147 38.9063 -0.35147 36.0938 1.07431 33.9453L3.35947 30.4688C4.12119 29.2969 4.49228 27.9297 4.41416 26.543L4.16025 22.3828C4.004 19.8047 5.41025 17.3828 7.71494 16.2305L11.4454 14.3555C12.6954 13.7109 13.711 12.6953 14.336 11.4453L16.211 7.71484C17.3634 5.41016 19.7853 4.00391 22.3634 4.16016L26.5235 4.41406C27.9103 4.49219 29.297 4.12109 30.4493 3.35938L33.9454 1.07422ZM53.1251 37.5C53.1251 33.356 51.4789 29.3817 48.5486 26.4515C45.6184 23.5212 41.6441 21.875 37.5001 21.875C33.3561 21.875 29.3818 23.5212 26.4516 26.4515C23.5213 29.3817 21.8751 33.356 21.8751 37.5C21.8751 41.644 23.5213 45.6183 26.4516 48.5486C29.3818 51.4788 33.3561 53.125 37.5001 53.125C41.6441 53.125 45.6184 51.4788 48.5486 48.5486C51.4789 45.6183 53.1251 41.644 53.1251 37.5ZM0.253999 86.2891L8.67197 66.2695C8.71103 66.2891 8.73056 66.3086 8.75009 66.3477L10.6251 70.0781C12.9102 74.6094 17.6563 77.3633 22.7345 77.0703L26.8946 76.8164C26.9337 76.8164 26.9923 76.8164 27.0313 76.8555L30.5079 79.1602C31.504 79.8047 32.5587 80.3125 33.6524 80.6641L26.3087 98.1055C25.8595 99.1797 24.8634 99.9024 23.711 100C22.5587 100.098 21.4454 99.5703 20.8204 98.5938L14.5313 88.9649L3.57431 90.5859C2.46103 90.7422 1.34775 90.293 0.644624 89.4141C-0.0585011 88.5352 -0.19522 87.3242 0.234468 86.2891H0.253999ZM48.6915 98.086L41.3478 80.6641C42.4415 80.3125 43.4962 79.8242 44.4923 79.1602L47.9688 76.8555C48.0079 76.8359 48.047 76.8164 48.1056 76.8164L52.2657 77.0703C57.3438 77.3633 62.0899 74.6094 64.3751 70.0781L66.2501 66.3477C66.2696 66.3086 66.2892 66.2891 66.3282 66.2695L74.7657 86.2891C75.1954 87.3242 75.0392 88.5156 74.3556 89.4141C73.672 90.3125 72.5392 90.7617 71.4259 90.5859L60.4688 88.9649L54.1798 98.5742C53.5548 99.5508 52.4415 100.078 51.2892 99.9805C50.1368 99.8828 49.1407 99.1406 48.6915 98.086Z" fill="#A29C9B"/>
</g>
<defs>
<clipPath id="clip0_245_2247">
<rect width="75" height="100" fill="white"/>
</clipPath>
</defs>
</svg>
