<svg width="111" height="100" viewBox="0 0 111 100" fill="none" xmlns="http://www.w3.org/2000/svg">
<path d="M55.5056 92.8364C85.8814 92.8364 110.5 72.0598 110.5 46.4182C110.5 20.7766 85.8814 0 55.5056 0C25.1298 0 0.511161 20.7766 0.511161 46.4182C0.511161 56.4829 4.31351 65.7889 10.7582 73.3988C10.35 78.8663 8.3092 83.7313 6.16098 87.4358C4.97946 89.489 3.77645 91.1404 2.89568 92.2562C2.44456 92.8141 2.10084 93.2381 1.84306 93.5282C1.71416 93.6621 1.62823 93.7737 1.56379 93.8407L1.49934 93.9076C0.511161 94.9342 0.231892 96.4517 0.768947 97.7907C1.306 99.1297 2.55197 100 3.94831 100C10.1137 100 16.3221 98.0138 21.4778 95.6929C26.3972 93.4613 30.5862 90.8056 33.1426 88.8641C39.974 91.4305 47.5357 92.8587 55.5056 92.8587V92.8364ZM59.802 23.2091V26.3111C61.4132 26.5789 62.9384 26.9583 64.3348 27.36C66.6334 27.9848 67.9867 30.4396 67.3852 32.8275C66.7837 35.2154 64.4207 36.6213 62.1221 35.9964C59.7591 35.3493 57.4819 34.8806 55.4197 34.836C53.7226 34.8137 51.9825 35.2377 50.801 35.9518C49.7698 36.5767 49.4691 37.2015 49.4691 38.0272C49.4691 38.4289 49.4906 38.8083 50.6076 39.5224C51.961 40.3705 53.9374 41.0176 56.6871 41.8657L56.8375 41.9103C59.2435 42.669 62.3369 43.6287 64.8074 45.2578C67.5786 47.0654 70.0275 50.0112 70.092 54.5414C70.1564 59.2055 67.8364 62.5976 64.7644 64.5838C63.2177 65.588 61.4991 66.2129 59.7805 66.5923V69.6273C59.7805 72.0821 57.8471 74.0906 55.4841 74.0906C53.1211 74.0906 51.1877 72.0821 51.1877 69.6273V66.3691C48.975 65.8782 46.8912 65.1417 45.1297 64.4945C44.6786 64.3383 44.2489 64.1821 43.8193 64.0259C41.5636 63.2448 40.3606 60.7231 41.1125 58.3798C41.8644 56.0366 44.2919 54.7869 46.5475 55.568C47.0846 55.7465 47.6001 55.9473 48.0942 56.1035C51.0158 57.1301 53.2499 57.9112 55.6345 58.0004C57.4819 58.0674 59.179 57.6434 60.2317 56.9516C61.1124 56.3937 61.5206 55.7242 61.4991 54.6083C61.4991 53.9612 61.3273 53.4925 60.2317 52.7784C58.8783 51.8857 56.9234 51.2386 54.2166 50.3905L53.8515 50.279C51.5099 49.5425 48.5668 48.6275 46.2038 47.1547C43.4756 45.4363 40.9192 42.5798 40.8977 38.0719C40.8762 33.3631 43.4326 30.1049 46.4401 28.2749C47.9224 27.36 49.555 26.7574 51.2091 26.378V23.2091C51.2091 20.7543 53.1425 18.7458 55.5056 18.7458C57.8686 18.7458 59.802 20.7543 59.802 23.2091Z" fill="#A29C9B"/>
</svg>
