<svg width="25" height="25" viewBox="0 0 25 25" fill="none" xmlns="http://www.w3.org/2000/svg">
<path d="M6.48381 12.28C6.94381 12.28 7.33381 12.2233 7.65381 12.11C7.98047 11.99 8.24714 11.8267 8.45381 11.62C8.66047 11.4133 8.81047 11.1733 8.90381 10.9C8.99714 10.62 9.04381 10.32 9.04381 10C9.04381 9.36 8.83381 8.86 8.41381 8.5C8.00047 8.14 7.35714 7.96 6.48381 7.96H5.12381V12.28H6.48381ZM13.6638 20H10.6038C10.0371 20 9.63047 19.7867 9.38381 19.36L6.96381 15.13C6.85047 14.95 6.72381 14.82 6.58381 14.74C6.44381 14.6533 6.24381 14.61 5.98381 14.61H5.12381V20H1.74381V5.43H6.48381C7.53714 5.43 8.43381 5.54 9.17381 5.76C9.92047 5.97333 10.5271 6.27333 10.9938 6.66C11.4671 7.04667 11.8105 7.50333 12.0238 8.03C12.2371 8.55667 12.3438 9.13 12.3438 9.75C12.3438 10.2233 12.2805 10.67 12.1538 11.09C12.0271 11.51 11.8405 11.9 11.5938 12.26C11.3471 12.6133 11.0405 12.93 10.6738 13.21C10.3138 13.49 9.89714 13.72 9.42381 13.9C9.64381 14.0133 9.85047 14.1567 10.0438 14.33C10.2371 14.4967 10.4105 14.6967 10.5638 14.93L13.6638 20Z" fill="#A62639"/>
<path d="M23.052 8.39C22.952 8.55 22.8453 8.67 22.732 8.75C22.6253 8.83 22.4853 8.87 22.312 8.87C22.1586 8.87 21.992 8.82333 21.812 8.73C21.6386 8.63 21.4386 8.52 21.212 8.4C20.992 8.28 20.7386 8.17333 20.452 8.08C20.1653 7.98 19.8386 7.93 19.472 7.93C18.8386 7.93 18.3653 8.06667 18.052 8.34C17.7453 8.60667 17.592 8.97 17.592 9.43C17.592 9.72333 17.6853 9.96667 17.872 10.16C18.0586 10.3533 18.302 10.52 18.602 10.66C18.9086 10.8 19.2553 10.93 19.642 11.05C20.0353 11.1633 20.4353 11.2933 20.842 11.44C21.2486 11.58 21.6453 11.7467 22.032 11.94C22.4253 12.1333 22.772 12.38 23.072 12.68C23.3786 12.98 23.6253 13.3467 23.812 13.78C23.9986 14.2067 24.092 14.7233 24.092 15.33C24.092 16.0033 23.9753 16.6333 23.742 17.22C23.5086 17.8067 23.1686 18.32 22.722 18.76C22.282 19.1933 21.7353 19.5367 21.082 19.79C20.4353 20.0367 19.6986 20.16 18.872 20.16C18.4186 20.16 17.9553 20.1133 17.482 20.02C17.0153 19.9267 16.562 19.7967 16.122 19.63C15.682 19.4567 15.2686 19.2533 14.882 19.02C14.4953 18.7867 14.1586 18.5267 13.872 18.24L14.872 16.66C14.952 16.5467 15.0553 16.4533 15.182 16.38C15.3153 16.3 15.4586 16.26 15.612 16.26C15.812 16.26 16.012 16.3233 16.212 16.45C16.4186 16.5767 16.6486 16.7167 16.902 16.87C17.162 17.0233 17.4586 17.1633 17.792 17.29C18.1253 17.4167 18.5186 17.48 18.972 17.48C19.5853 17.48 20.062 17.3467 20.402 17.08C20.742 16.8067 20.912 16.3767 20.912 15.79C20.912 15.45 20.8186 15.1733 20.632 14.96C20.4453 14.7467 20.1986 14.57 19.892 14.43C19.592 14.29 19.2486 14.1667 18.862 14.06C18.4753 13.9533 18.0786 13.8367 17.672 13.71C17.2653 13.5767 16.8686 13.4167 16.482 13.23C16.0953 13.0367 15.7486 12.7867 15.442 12.48C15.142 12.1667 14.8986 11.78 14.712 11.32C14.5253 10.8533 14.432 10.28 14.432 9.6C14.432 9.05333 14.542 8.52 14.762 8C14.982 7.48 15.3053 7.01667 15.732 6.61C16.1586 6.20333 16.682 5.88 17.302 5.64C17.922 5.39333 18.632 5.27 19.432 5.27C19.8786 5.27 20.312 5.30667 20.732 5.38C21.1586 5.44667 21.562 5.55 21.942 5.69C22.322 5.82333 22.6753 5.98667 23.002 6.18C23.3353 6.36667 23.632 6.58 23.892 6.82L23.052 8.39Z" fill="#A29C9B"/>
</svg>
