<svg width="101" height="100" viewBox="0 0 101 100" fill="none" xmlns="http://www.w3.org/2000/svg">
<g clip-path="url(#clip0_245_2232)">
<path d="M43 0C47.67 0 52.33 0 57 0C66.88 2.57 76.2 6.13 83.91 13.25C92.72 21.38 97.19 31.7 100 43V57C99.7 57.75 99.28 58.47 99.12 59.24C95.67 75.85 86.31 87.94 71.05 95.22C66.62 97.34 61.7 98.43 57 99.99H43C42.26 99.69 41.54 99.27 40.76 99.11C23.74 95.58 11.59 85.82 4.31 70.15C2.38 65.99 1.41 61.39 0 56.99C0 52.32 0 47.66 0 42.99C0.32 42.08 0.74 41.19 0.95 40.26C4.69 23.55 14.31 11.48 29.84 4.33C34.01 2.41 38.6 1.42 43 0ZM93.99 50.05C94.02 25.87 74.43 6.12 50.29 6.01C25.89 5.89 6.03 25.59 6 49.96C5.97 74.34 25.76 94.06 50.2 94C74.34 93.95 93.96 74.26 93.99 50.05Z" fill="#A29C9B"/>
<path d="M50.4 52.15C58.38 52.15 66.37 52.23 74.35 52.11C78.03 52.06 79.3 53.62 79.19 57.25C78.77 72.07 65.14 84.69 49.6 84.45C34.2 84.21 20.97 71.48 20.8 56.93C20.76 53.49 22.04 52.08 25.44 52.12C33.76 52.2 42.07 52.15 50.39 52.15H50.4ZM72.63 58.51H27.2C28.86 70.53 39.23 79.1 50.95 78.5C62.49 77.91 72.02 69.14 72.63 58.51Z" fill="#A29C9B"/>
<path d="M30.29 32.39C33.22 33.78 36.01 34.82 38.42 36.41C39.28 36.98 39.24 38.92 39.61 40.23C38.16 40.52 36.23 41.54 35.35 40.96C31.77 38.61 28.64 38.84 25.14 41.08C24.33 41.6 22.6 40.69 21.29 40.43C21.56 39.08 21.38 37.07 22.2 36.51C24.58 34.87 27.36 33.82 30.3 32.38L30.29 32.39Z" fill="#A29C9B"/>
<path d="M69.72 32.23C72.8 33.86 75.66 35.09 78.13 36.87C78.83 37.37 78.78 39.64 78.29 40.75C78.04 41.32 75.63 41.66 74.89 41.13C71.22 38.52 67.9 38.85 64.25 41.19C63.49 41.68 61.39 40.96 60.56 40.14C60.08 39.66 60.49 37.26 61.21 36.78C63.75 35.09 66.6 33.85 69.74 32.23H69.72Z" fill="#A29C9B"/>
</g>
<defs>
<clipPath id="clip0_245_2232">
<rect width="100" height="100" fill="white" transform="translate(0.5)"/>
</clipPath>
</defs>
</svg>
