<svg width="125" height="100" viewBox="0 0 125 100" fill="none" xmlns="http://www.w3.org/2000/svg">
<g clip-path="url(#clip0_245_2242)">
<path d="M21.875 0C16.6992 0 12.5 4.19922 12.5 9.375V18.75H3.125C1.40625 18.75 0 20.1562 0 21.875C0 23.5938 1.40625 25 3.125 25H12.5H53.125C54.8438 25 56.25 26.4062 56.25 28.125C56.25 29.8438 54.8438 31.25 53.125 31.25H12.5H9.375C7.65625 31.25 6.25 32.6562 6.25 34.375C6.25 36.0938 7.65625 37.5 9.375 37.5H12.5H46.875C48.5938 37.5 50 38.9062 50 40.625C50 42.3438 48.5938 43.75 46.875 43.75H12.5H3.125C1.40625 43.75 0 45.1562 0 46.875C0 48.5938 1.40625 50 3.125 50H12.5H40.625C42.3438 50 43.75 51.4062 43.75 53.125C43.75 54.8438 42.3438 56.25 40.625 56.25H12.5V81.25C12.5 91.6016 20.8984 100 31.25 100C41.6016 100 50 91.6016 50 81.25H75C75 91.6016 83.3984 100 93.75 100C104.102 100 112.5 91.6016 112.5 81.25H118.75C122.207 81.25 125 78.457 125 75C125 71.543 122.207 68.75 118.75 68.75V56.25V50V46.3477C118.75 43.0273 117.441 39.8438 115.098 37.5L100 22.4023C97.6562 20.0586 94.4727 18.75 91.1523 18.75H81.25V9.375C81.25 4.19922 77.0508 0 71.875 0H21.875ZM106.25 46.3477V50H81.25V31.25H91.1523L106.25 46.3477ZM31.25 71.875C33.7364 71.875 36.121 72.8627 37.8791 74.6209C39.6373 76.379 40.625 78.7636 40.625 81.25C40.625 83.7364 39.6373 86.121 37.8791 87.8791C36.121 89.6373 33.7364 90.625 31.25 90.625C28.7636 90.625 26.379 89.6373 24.6209 87.8791C22.8627 86.121 21.875 83.7364 21.875 81.25C21.875 78.7636 22.8627 76.379 24.6209 74.6209C26.379 72.8627 28.7636 71.875 31.25 71.875ZM84.375 81.25C84.375 78.7636 85.3627 76.379 87.1209 74.6209C88.879 72.8627 91.2636 71.875 93.75 71.875C96.2364 71.875 98.621 72.8627 100.379 74.6209C102.137 76.379 103.125 78.7636 103.125 81.25C103.125 83.7364 102.137 86.121 100.379 87.8791C98.621 89.6373 96.2364 90.625 93.75 90.625C91.2636 90.625 88.879 89.6373 87.1209 87.8791C85.3627 86.121 84.375 83.7364 84.375 81.25Z" fill="#A29C9B"/>
</g>
<defs>
<clipPath id="clip0_245_2242">
<rect width="125" height="100" fill="white"/>
</clipPath>
</defs>
</svg>
